<?xml version="1.0" encoding="iso-8859-1"?>
<!-- Generator: Adobe Illustrator 15.1.0, SVG Export Plug-In . SVG Version: 6.00 Build 0)  -->
<!DOCTYPE svg PUBLIC "-//W3C//DTD SVG 1.1//EN" "http://www.w3.org/Graphics/SVG/1.1/DTD/svg11.dtd">
<svg version="1.1" xmlns="http://www.w3.org/2000/svg" xmlns:xlink="http://www.w3.org/1999/xlink" x="0px" y="0px" width="800px"
	 height="600px" viewBox="0 0 800 600" enable-background="new 0 0 800 600" xml:space="preserve">
<g id="Freakow">
	<path d="M443.54,116.163c5.096-3.467,11.672-5.559,18.856-5.559c7.184,0,13.761,2.092,18.856,5.56
		c9.402-4.315,14.962-10.425,20.009-19.145c-9.799-10.221-23.588-16.585-38.865-16.585s-29.066,6.364-38.864,16.584
		C428.579,105.738,434.138,111.848,443.54,116.163z"/>
	<g>
		<path d="M430.882,177.905c3.404-6.093,7.684-11.948,12.871-17.535l0.145-0.149c1.773-1.773,3.694-3.349,5.661-4.676
			c-9.744-3.845-16.457-11.925-16.457-21.275c0-0.463,0.021-0.921,0.053-1.377c-7.483-6.675-14.101-16.03-17.4-25.523
			c-4.575,7.915-7.193,17.102-7.193,26.901C408.561,152.229,417.363,168.125,430.882,177.905z"/>
		<path d="M509.039,107.37c-3.301,9.493-9.917,18.848-17.401,25.523c0.033,0.456,0.054,0.914,0.054,1.376
			c0,5.777-2.565,11.069-6.823,15.178l-0.002,0.005c-6.037,9.698-9.442,22.577-8.182,36.722
			c22.795-6.262,39.548-27.121,39.548-51.904C516.232,124.471,513.613,115.285,509.039,107.37z"/>
	</g>
	<path fill="#E94444" d="M427.008,216.43c0.381,14.045,9.673,34.825,28.406,34.824c0.964,0,1.954-0.058,2.941-0.17
		c7.78-0.89,13.667-4.361,17.022-10.04c4.609-7.803,4.3-19.47-0.851-32.012c-7.817-19.033-6.898-40.56,2.183-55.821
		c-4.526,2.009-20.652,11.762-24.087,30.784c-1.557-6.522-0.163-18.339,6.987-26.501c-2.818,0.564-7.442,2.655-11.917,7.13
		C433.263,180.166,426.486,197.121,427.008,216.43z"/>
	<polygon fill="#010202" points="171.714,106.061 208.743,106.061 208.738,119.109 189.046,119.114 189.046,127.704 205.85,127.704 
		205.85,139.706 189.046,139.706 189.041,163.42 171.709,163.414 	"/>
	<g>
		<path fill="#010202" d="M213.762,106.061c0,0,16.161,0,23.242,0c5.118,0,10.652,1.35,14.316,5.188
			c3.082,3.207,4.133,7.287,4.051,11.659c-0.117,6.169-2.283,10.753-6.09,13.54l9.13,26.967l-16.286,0.006l-7.861-23.094
			c0,0-2.114,0-3.171,0c-0.005,7.029-0.005,23.094-0.005,23.094s-12.221,0.005-17.332-0.006
			C213.762,144.296,213.762,106.061,213.762,106.061z M231.093,118.329v9.581l4.66,0c1.027,0,2.275-0.16,3.081-0.637
			c1.634-0.968,1.604-2.906,1.618-4.366c-0.045-1.243-0.098-2.855-1.313-3.776c-0.82-0.622-2.289-0.802-3.385-0.802
			C234.206,118.329,232.634,118.329,231.093,118.329z"/>
	</g>
	<polygon fill="#010202" points="262.454,106.061 299.047,106.056 299.047,119.109 279.79,119.109 279.785,126.478 293.618,126.483 
		293.618,137.776 279.785,137.781 279.785,150.628 299.657,150.633 299.657,163.42 262.449,163.414 	"/>
	<g>
		<path fill="#010202" d="M319.749,106.056h21.43l16.02,57.358h-17.501l-3.381-15.088h-11.906l-3.277,15.094l-17.321-0.006
			L319.749,106.056z M326.727,137.66l7.277,0.016l-3.676-16.602L326.727,137.66z"/>
	</g>
	<polygon fill="#010202" points="361.271,106.061 378.424,106.056 378.428,126.327 390.25,106.056 406.979,106.061 391.881,129.079 
		410.373,163.42 391.373,163.42 381.495,145.076 378.465,149.715 378.424,163.42 361.267,163.414 	"/>
	<polygon fill="#010202" points="517.354,106.056 534.502,106.061 542.716,136.913 549.735,106.061 563.835,106.061 
		570.688,137.015 578.982,106.061 596.052,106.061 582.137,163.41 563.835,163.42 556.736,131.437 549.484,163.42 531.271,163.42 	
		"/>
</g>
<g id="Freakow-BlackBG">
	<rect y="292.76" width="800" height="307.24"/>
	<path fill="#FFFFFF" d="M443.54,406.163c5.096-3.467,11.672-5.56,18.856-5.56c7.184,0,13.761,2.093,18.856,5.561
		c9.402-4.316,14.962-10.426,20.009-19.146c-9.799-10.221-23.588-16.585-38.865-16.585s-29.066,6.363-38.864,16.584
		C428.579,395.738,434.138,401.848,443.54,406.163z"/>
	<g>
		<path fill="#FFFFFF" d="M430.882,467.905c3.404-6.093,7.684-11.948,12.871-17.535l0.145-0.149
			c1.773-1.773,3.694-3.349,5.661-4.676c-9.744-3.845-16.457-11.926-16.457-21.275c0-0.463,0.021-0.921,0.053-1.377
			c-7.483-6.676-14.101-16.03-17.4-25.523c-4.575,7.914-7.193,17.102-7.193,26.9C408.561,442.229,417.363,458.125,430.882,467.905z"
			/>
		<path fill="#FFFFFF" d="M509.039,397.37c-3.301,9.493-9.917,18.849-17.401,25.522c0.033,0.457,0.054,0.914,0.054,1.377
			c0,5.777-2.565,11.068-6.823,15.178l-0.002,0.005c-6.037,9.698-9.442,22.577-8.182,36.722
			c22.795-6.262,39.548-27.121,39.548-51.904C516.232,414.471,513.613,405.285,509.039,397.37z"/>
	</g>
	<path fill="#E94444" d="M427.008,506.43c0.381,14.045,9.673,34.825,28.406,34.824c0.964,0,1.954-0.058,2.941-0.17
		c7.78-0.89,13.667-4.361,17.022-10.04c4.609-7.803,4.3-19.47-0.851-32.012c-7.817-19.033-6.898-40.56,2.183-55.821
		c-4.526,2.009-20.652,11.762-24.087,30.784c-1.557-6.522-0.163-18.339,6.987-26.501c-2.818,0.564-7.442,2.655-11.917,7.13
		C433.263,470.166,426.486,487.121,427.008,506.43z"/>
	<polygon fill="#FFFFFF" points="171.714,396.061 208.743,396.061 208.738,409.109 189.046,409.113 189.046,417.704 205.85,417.704 
		205.85,429.705 189.046,429.705 189.041,453.42 171.709,453.414 	"/>
	<g>
		<path fill="#FFFFFF" d="M213.762,396.061c0,0,16.161,0,23.242,0c5.118,0,10.652,1.35,14.316,5.188
			c3.082,3.207,4.133,7.287,4.051,11.659c-0.117,6.169-2.283,10.753-6.09,13.54l9.13,26.967l-16.286,0.006l-7.861-23.094
			c0,0-2.114,0-3.171,0c-0.005,7.029-0.005,23.094-0.005,23.094s-12.221,0.005-17.332-0.006
			C213.762,434.297,213.762,396.061,213.762,396.061z M231.093,408.329v9.581h4.66c1.027,0,2.275-0.159,3.081-0.637
			c1.634-0.969,1.604-2.906,1.618-4.366c-0.045-1.243-0.098-2.855-1.313-3.776c-0.82-0.621-2.289-0.802-3.385-0.802
			C234.206,408.329,232.634,408.329,231.093,408.329z"/>
	</g>
	<polygon fill="#FFFFFF" points="262.454,396.061 299.047,396.056 299.047,409.109 279.79,409.109 279.785,416.479 293.618,416.482 
		293.618,427.776 279.785,427.781 279.785,440.628 299.657,440.633 299.657,453.42 262.449,453.414 	"/>
	<g>
		<path fill="#FFFFFF" d="M319.749,396.056h21.43l16.02,57.358h-17.501l-3.381-15.088h-11.906l-3.277,15.094l-17.321-0.006
			L319.749,396.056z M326.727,427.66l7.277,0.016l-3.676-16.602L326.727,427.66z"/>
	</g>
	<polygon fill="#FFFFFF" points="361.271,396.061 378.424,396.056 378.428,416.326 390.25,396.056 406.979,396.061 391.881,419.078 
		410.373,453.42 391.373,453.42 381.495,435.076 378.465,439.715 378.424,453.42 361.267,453.414 	"/>
	<polygon fill="#FFFFFF" points="517.354,396.056 534.502,396.061 542.716,426.913 549.735,396.061 563.835,396.061 
		570.688,427.015 578.982,396.061 596.052,396.061 582.137,453.41 563.835,453.42 556.736,421.437 549.484,453.42 531.271,453.42 	
		"/>
</g>
</svg>
