<?xml version="1.0" encoding="UTF-8"?>
<!DOCTYPE svg PUBLIC "-//W3C//DTD SVG 1.1//EN" "http://www.w3.org/Graphics/SVG/1.1/DTD/svg11.dtd">
<!-- Creator: CorelDRAW -->
<svg xmlns="http://www.w3.org/2000/svg" xml:space="preserve" width="148mm" height="32mm" style="shape-rendering:geometricPrecision; text-rendering:geometricPrecision; image-rendering:optimizeQuality; fill-rule:evenodd; clip-rule:evenodd"
viewBox="0 0 148 32"
 xmlns:xlink="http://www.w3.org/1999/xlink">
 <defs>
  <style type="text/css">
   <![CDATA[
    .fil0 {fill:#373435}
    .fil1 {fill:#373435;fill-rule:nonzero}
   ]]>
  </style>
 </defs>
 <g id="Layer_x0020_1">
  <metadata id="CorelCorpID_0Corel-Layer"/>
  <g id="_248529120">
   <path id="_248529576" class="fil0" d="M51.6015 9.9083c0,-0.3727 -0.2981,-0.6602 -0.6601,-0.6602 -0.3727,0 -0.6602,0.2875 -0.6602,0.6602 0,0.362 0.2875,0.6602 0.6602,0.6602 0.362,0 0.6601,-0.2982 0.6601,-0.6602zm-0.0958 0c0,0.3088 -0.2556,0.5643 -0.5643,0.5643 -0.3088,0 -0.5644,-0.2555 -0.5644,-0.5643 0,-0.3194 0.2556,-0.5643 0.5644,-0.5643 0.3087,0 0.5643,0.2449 0.5643,0.5643zm-0.2556 -0.181c0,-0.1065 -0.0532,-0.2023 -0.2129,-0.2023l-0.2556 0.0106 -0.1597 0.6921 0.1065 0 0.0745 -0.2981 0.1278 0 0.1171 0.2981 0.1171 0 -0.1277 -0.2981c0.1171,-0.0107 0.2023,-0.0958 0.2129,-0.2023zm-0.0958 -0.0106c-0.0107,0.1171 -0.1384,0.1171 -0.2236,0.1171l-0.1065 0 0.0426 -0.213 0.1491 0c0.0852,0 0.1384,0.0213 0.1384,0.0959zm-1.2351 -0.4153l-1.0328 0 0.3194 -1.4481 -2.0018 0 -0.3194 1.4481 -1.2777 0 0.0319 -0.1597c0.0958,-0.4472 0.1491,-0.7028 0.8305,-0.6921l0.2343 -1.1287c0,0 -1.693,-0.2023 -2.3638,0.3088 -0.4578,0.3513 -0.6282,0.7666 -0.8305,1.6717l-1.0754 0 -0.3088 1.3948 1.1074 0 -1.0116 4.6105 2.1509 0 1.0115 -4.6105 1.1925 0 -0.6602 3.0347c-0.181,0.7986 0.0959,1.1606 0.3621,1.3416 0.5963,0.4064 2.3318,0.2023 2.3318,0.2023l0.3301 -1.3736c0,0 -0.8518,0.0958 -0.937,-0.1384 -0.0533,-0.1597 -0.0106,-0.2981 0.0213,-0.4366l0.5643 -2.63 1.0222 0 0.3088 -1.3948zm-10.243 -0.2343c-4.5147,-0.2236 -5.835,6.2627 -1.4375,6.4437 4.472,0.181 5.6752,-6.2307 1.4375,-6.4437zm-0.1598 1.4055c1.4162,0.2236 0.3833,3.812 -1.1499,3.4925 -1.3842,-0.2875 -0.2556,-3.7054 1.1499,-3.4925zm-15.6946 -1.267c-0.3727,0 -0.6921,0.0532 -1.0222,0.1597 -0.4046,0.1384 -0.7347,0.3514 -1.0009,0.6814l0.1704 -0.7453 -1.9592 0 -1.3522 6.0178 2.0656 0 0.4898 -2.142c0.4046,-1.7995 1.3842,-2.0231 1.8634,-2.0337 -0.969,1.8527 -0.4047,4.2715 2.2466,4.3673 1.7249,0.0533 3.0133,-0.8855 3.567,-1.9716 -0.0639,0.6921 0.2449,1.961 3.0452,1.9929 3.1517,0.0426 3.4072,-1.961 3.386,-2.3975 -0.0852,-1.5546 -1.4588,-1.6185 -2.6726,-1.874 -0.9796,-0.213 -0.7773,-0.9796 0.0852,-0.9796 0.937,0 0.7134,0.7773 0.7134,0.7773l2.0869 0c-0.0426,-0.1278 0.5537,-1.9699 -2.5767,-2.0125 -1.5333,-0.0212 -2.9388,0.4472 -3.1304,1.7995 -0.2343,1.6398 1.8846,1.9912 2.4276,2.087 1.2032,0.2129 0.8519,1.2138 -0.0319,1.2245 -1.299,0.0106 -0.9796,-0.9051 -0.9796,-0.9051l-4.0355 0 1.7995 -0.6389c0.181,-0.0638 0.2981,-0.1171 0.3301,-0.2874 0.3301,-1.6505 -0.5111,-3.1412 -2.5555,-3.2583 -1.4587,-0.0745 -2.5873,0.5537 -3.3007,1.4481l0.3407 -1.3096zm2.7897 1.267c1.4161,0.2236 0.3833,3.812 -1.15,3.4925 -1.3735,-0.2875 -0.2555,-3.7054 1.15,-3.4925zm-13.0008 -3.2582l-2.1828 0 -0.2874 1.3203 2.1721 0 0.2981 -1.3203zm5.6433 4.3337c0.0212,-0.0959 0.1597,-2.268 -2.449,-2.3958 -4.5998,-0.2343 -5.6433,6.252 -1.5971,6.3372 3.0239,0.0639 3.7053,-2.3549 3.7053,-2.3868l-2.2679 0c-0.0639,0.0958 -0.3833,0.8837 -1.0541,0.8624 -1.4801,-0.0319 -0.5324,-3.3434 0.8092,-3.386 0.7134,-0.0213 0.6389,0.8731 0.6069,0.969l2.2467 0zm-6.1118 -2.2467l-2.1721 0 -1.3523 6.0053 2.1935 0.0125 1.3309 -6.0178zm-2.2679 -2.087l-3.2156 0 -2.1721 4.5253 -0.1385 -4.5253 -3.2156 0 -1.7994 8.1048 2.3531 0 1.0861 -4.3568 0.0852 4.3568 1.6716 0 2.1722 -4.3568 -0.9583 4.3568 2.3318 0 1.7995 -8.1048z"/>
   <polygon id="_248529480" class="fil1" points="55.2097,0.0816 55.2097,31.9185 54.314,31.9185 54.314,0.0816 "/>
   <g>
    <polygon id="_248529336" class="fil1" points="59.942,7.2731 59.942,15.3037 59.1964,15.3037 59.1964,7.2731 "/>
    <path id="_2485293361" class="fil1" d="M65.7765 15.3037l0 -3.3052c0,-1.2941 -0.4703,-1.9421 -1.4109,-1.9421 -0.2504,0 -0.4817,0.0497 -0.6958,0.1491 -0.2122,0.0975 -0.3957,0.2351 -0.5505,0.411 -0.1549,0.1758 -0.2772,0.3842 -0.3651,0.6251 -0.088,0.2389 -0.1319,0.5008 -0.1319,0.7799l0 3.2822 -0.717 0 0 -5.7348 0.717 0 0 0.9959 0.0229 0c0.4263,-0.7531 1.0667,-1.1297 1.9211,-1.1297 0.6272,0 1.1051,0.2026 1.4338,0.6098 0.3288,0.4072 0.4932,0.9959 0.4932,1.7644l0 3.4944 -0.7168 0z"/>
    <path id="_24852933612" class="fil1" d="M72.0888 15.3037l0 -3.3052c0,-1.2941 -0.4703,-1.9421 -1.4109,-1.9421 -0.2504,0 -0.4817,0.0497 -0.6958,0.1491 -0.2122,0.0975 -0.3957,0.2351 -0.5505,0.411 -0.1549,0.1758 -0.2772,0.3842 -0.3651,0.6251 -0.088,0.2389 -0.1319,0.5008 -0.1319,0.7799l0 3.2822 -0.717 0 0 -5.7348 0.717 0 0 0.9959 0.0229 0c0.4263,-0.7531 1.0667,-1.1297 1.9211,-1.1297 0.6272,0 1.1051,0.2026 1.4338,0.6098 0.3288,0.4072 0.4932,0.9959 0.4932,1.7644l0 3.4944 -0.7168 0z"/>
    <path id="_248529336123" class="fil1" d="M76.8775 15.4375c-0.4262,0 -0.8066,-0.0707 -1.145,-0.2122 -0.3384,-0.1414 -0.627,-0.3422 -0.8661,-0.6021 -0.2389,-0.26 -0.4224,-0.5697 -0.5486,-0.9329 -0.1262,-0.3613 -0.1911,-0.7627 -0.1911,-1.2043 0,-0.4779 0.0688,-0.9042 0.2026,-1.2827 0.1338,-0.3766 0.325,-0.6958 0.5735,-0.9596 0.2486,-0.2638 0.5487,-0.4645 0.8985,-0.6022 0.3518,-0.1376 0.7436,-0.2064 1.1776,-0.2064 0.4129,0 0.7875,0.0669 1.1203,0.2045 0.3307,0.1358 0.6136,0.3326 0.8449,0.5907 0.2313,0.2562 0.4091,0.5716 0.5314,0.9405 0.1243,0.369 0.1854,0.7895 0.1854,1.2598 0,0.4473 -0.065,0.8564 -0.193,1.2234 -0.1281,0.3689 -0.3135,0.6843 -0.5525,0.9501 -0.2389,0.2638 -0.5295,0.4702 -0.8736,0.6155 -0.3423,0.1453 -0.7303,0.2179 -1.1643,0.2179zm0.0555 -5.3811c-0.3135,0 -0.5964,0.0535 -0.8507,0.1624 -0.2542,0.1071 -0.4721,0.2658 -0.6518,0.4722 -0.1816,0.2084 -0.3212,0.4626 -0.4188,0.7627 -0.0956,0.3002 -0.1453,0.6404 -0.1453,1.0208 0,0.3594 0.0497,0.6825 0.1453,0.9692 0.0976,0.2887 0.2353,0.5353 0.413,0.7398 0.1759,0.2045 0.3919,0.3632 0.6462,0.4741 0.2542,0.1089 0.5371,0.1644 0.8506,0.1644 0.3212,0 0.606,-0.0535 0.8527,-0.1587 0.2466,-0.107 0.4549,-0.2619 0.627,-0.4664 0.172,-0.2026 0.302,-0.4512 0.388,-0.7475 0.088,-0.2943 0.1319,-0.6308 0.1319,-1.0074 0,-0.7723 -0.172,-1.3629 -0.5142,-1.772 -0.3441,-0.4091 -0.8354,-0.6136 -1.4739,-0.6136z"/>
    <path id="_2485293361234" class="fil1" d="M83.1497 15.3037l-0.6843 0 -2.1947 -5.7348 0.7895 0 1.5849 4.368c0.0974,0.2657 0.1586,0.4989 0.1854,0.6997l0.021 0c0.0459,-0.2677 0.1032,-0.4932 0.174,-0.6768l1.6421 -4.3909 0.7666 0 -2.2845 5.7348z"/>
    <path id="_24852933612345" class="fil1" d="M89.7527 15.3037l0 -1.0189 -0.023 0c-0.1855,0.3651 -0.4417,0.65 -0.7647,0.8507 -0.3231,0.2026 -0.6882,0.302 -1.0935,0.302 -0.2771,0 -0.5256,-0.0382 -0.7493,-0.1166 -0.2218,-0.0784 -0.4092,-0.1892 -0.564,-0.3345 -0.1568,-0.1434 -0.2753,-0.3154 -0.3594,-0.5181 -0.0841,-0.2007 -0.1262,-0.4224 -0.1262,-0.6652 0,-0.52 0.1606,-0.9329 0.4818,-1.2406 0.3211,-0.3078 0.8067,-0.5085 1.4567,-0.6022l1.7416 -0.2523c0,-1.1011 -0.4283,-1.6516 -1.2828,-1.6516 -0.6691,0 -1.2884,0.2446 -1.8601,0.734l0 -0.7837c0.1204,-0.0861 0.2561,-0.1644 0.4073,-0.2333 0.151,-0.0688 0.3096,-0.128 0.4779,-0.1796 0.1682,-0.0498 0.3402,-0.0899 0.518,-0.1167 0.1778,-0.0286 0.3498,-0.042 0.518,-0.042 0.6385,0 1.1222,0.1778 1.4491,0.5371 0.325,0.3575 0.4894,0.8928 0.4894,1.602l0 3.7295 -0.7168 0zm-1.4797 -2.7833c-0.2562,0.0363 -0.4779,0.0841 -0.6595,0.1396 -0.1835,0.0554 -0.3346,0.1319 -0.455,0.2274 -0.1185,0.0956 -0.2065,0.2122 -0.262,0.3518 -0.0573,0.1414 -0.0841,0.3135 -0.0841,0.518 0,0.1529 0.0268,0.2963 0.0803,0.4263 0.0554,0.13 0.1339,0.2428 0.2352,0.3384 0.1033,0.0955 0.2275,0.1701 0.3766,0.2217 0.1472,0.0516 0.3135,0.0784 0.5009,0.0784 0.2542,0 0.4874,-0.0478 0.6996,-0.1453 0.2122,-0.0975 0.3976,-0.2313 0.5525,-0.4034 0.1548,-0.172 0.2752,-0.3765 0.3632,-0.6155 0.088,-0.2389 0.132,-0.4989 0.132,-0.7799l0 -0.5639 -1.4797 0.2064z"/>
    <path id="_248529336123456" class="fil1" d="M94.658 15.2368c-0.2447,0.1223 -0.5143,0.1854 -0.8048,0.1854 -0.9272,0 -1.3899,-0.5352 -1.3899,-1.6019l0 -3.6244 -1.0074 0 0 -0.627 1.0074 0 0 -1.4452 0.717 -0.2351 0 1.6803 1.4777 0 0 0.627 -1.4777 0 0 3.5116c0,0.3881 0.0631,0.6691 0.1911,0.8392 0.1262,0.1721 0.3403,0.2581 0.6443,0.2581 0.2236,0 0.4377,-0.0669 0.6423,-0.2007l0 0.6327z"/>
    <path id="_2485293361234567" class="fil1" d="M96.1929 8.118c-0.1376,0 -0.258,-0.0478 -0.3593,-0.1453 -0.0994,-0.0975 -0.151,-0.2198 -0.151,-0.3689 0,-0.1453 0.0516,-0.2657 0.151,-0.3613 0.1013,-0.0956 0.2217,-0.1434 0.3593,-0.1434 0.0708,0 0.1377,0.0115 0.2009,0.0363 0.065,0.0249 0.1185,0.0593 0.1663,0.1033 0.0459,0.0458 0.0841,0.0994 0.1108,0.1605 0.0287,0.0612 0.0421,0.13 0.0421,0.2046 0,0.0707 -0.0115,0.1376 -0.0382,0.2007 -0.0268,0.0631 -0.0631,0.1185 -0.1128,0.1663 -0.0478,0.0459 -0.1032,0.0822 -0.1644,0.109 -0.0613,0.0248 -0.1301,0.0382 -0.2047,0.0382zm-0.3536 7.1857l0 -5.7348 0.717 0 0 5.7348 -0.717 0z"/>
    <path id="_24852933612345678" class="fil1" d="M100.752 15.4375c-0.4262,0 -0.8066,-0.0707 -1.145,-0.2122 -0.3384,-0.1414 -0.627,-0.3422 -0.8661,-0.6021 -0.2389,-0.26 -0.4224,-0.5697 -0.5486,-0.9329 -0.1262,-0.3613 -0.1911,-0.7627 -0.1911,-1.2043 0,-0.4779 0.0688,-0.9042 0.2026,-1.2827 0.1338,-0.3766 0.325,-0.6958 0.5735,-0.9596 0.2486,-0.2638 0.5487,-0.4645 0.8985,-0.6022 0.3518,-0.1376 0.7436,-0.2064 1.1776,-0.2064 0.4129,0 0.7875,0.0669 1.1203,0.2045 0.3307,0.1358 0.6136,0.3326 0.8449,0.5907 0.2313,0.2562 0.4091,0.5716 0.5314,0.9405 0.1243,0.369 0.1854,0.7895 0.1854,1.2598 0,0.4473 -0.065,0.8564 -0.193,1.2234 -0.1281,0.3689 -0.3135,0.6843 -0.5525,0.9501 -0.2389,0.2638 -0.5295,0.4702 -0.8736,0.6155 -0.3423,0.1453 -0.7303,0.2179 -1.1643,0.2179zm0.0555 -5.3811c-0.3135,0 -0.5964,0.0535 -0.8507,0.1624 -0.2542,0.1071 -0.4721,0.2658 -0.6518,0.4722 -0.1816,0.2084 -0.3212,0.4626 -0.4188,0.7627 -0.0956,0.3002 -0.1453,0.6404 -0.1453,1.0208 0,0.3594 0.0497,0.6825 0.1453,0.9692 0.0976,0.2887 0.2353,0.5353 0.413,0.7398 0.1759,0.2045 0.3919,0.3632 0.6462,0.4741 0.2542,0.1089 0.5371,0.1644 0.8506,0.1644 0.3212,0 0.606,-0.0535 0.8527,-0.1587 0.2466,-0.107 0.4549,-0.2619 0.627,-0.4664 0.172,-0.2026 0.302,-0.4512 0.388,-0.7475 0.088,-0.2943 0.1319,-0.6308 0.1319,-1.0074 0,-0.7723 -0.172,-1.3629 -0.5142,-1.772 -0.3441,-0.4091 -0.8354,-0.6136 -1.4739,-0.6136z"/>
    <path id="_248529336123456789" class="fil1" d="M108.85 15.3037l0 -3.3052c0,-1.2941 -0.4703,-1.9421 -1.4109,-1.9421 -0.2504,0 -0.4817,0.0497 -0.6958,0.1491 -0.2122,0.0975 -0.3957,0.2351 -0.5505,0.411 -0.1549,0.1758 -0.2772,0.3842 -0.3651,0.6251 -0.088,0.2389 -0.1319,0.5008 -0.1319,0.7799l0 3.2822 -0.717 0 0 -5.7348 0.717 0 0 0.9959 0.0229 0c0.4263,-0.7531 1.0667,-1.1297 1.9211,-1.1297 0.6272,0 1.1051,0.2026 1.4338,0.6098 0.3288,0.4072 0.4932,0.9959 0.4932,1.7644l0 3.4944 -0.7168 0z"/>
    <path id="_24852933612345678910" class="fil1" d="M119.951 15.0074c-0.6194,0.2906 -1.3267,0.4358 -2.1219,0.4358 -0.5678,0 -1.084,-0.0994 -1.5466,-0.2982 -0.4626,-0.2007 -0.8583,-0.4779 -1.1833,-0.8334 -0.3269,-0.3537 -0.5793,-0.7761 -0.7571,-1.2655 -0.1777,-0.4894 -0.2657,-1.0227 -0.2657,-1.6019 0,-0.6079 0.0937,-1.1737 0.283,-1.6994 0.1873,-0.5238 0.4587,-0.9788 0.8087,-1.3668 0.3517,-0.3862 0.7761,-0.6882 1.275,-0.9099 0.497,-0.2199 1.0571,-0.3288 1.6766,-0.3288 0.6843,0 1.2941,0.1032 1.8313,0.3135l0 0.7952c-0.5754,-0.2887 -1.189,-0.432 -1.8428,-0.432 -0.5181,0 -0.9788,0.0898 -1.3822,0.2695 -0.4033,0.1778 -0.7436,0.4282 -1.0208,0.7474 -0.2753,0.3193 -0.4855,0.6959 -0.6327,1.1317 -0.1454,0.4339 -0.218,0.9099 -0.218,1.4241 0,0.4627 0.0649,0.8985 0.1969,1.3076 0.13,0.4091 0.3231,0.7665 0.5793,1.0724 0.2561,0.3058 0.5734,0.5486 0.9539,0.7283 0.3823,0.1797 0.8239,0.2695 1.3286,0.2695 0.7723,0 1.4528,-0.1624 2.0378,-0.4874l0 0.7283z"/>
    <path id="_2485293361234567891011" class="fil1" d="M121.89 12.5644c0.0038,0.3517 0.0497,0.6671 0.1395,0.9462 0.09,0.281 0.22,0.5181 0.3882,0.713 0.1663,0.1931 0.3708,0.3422 0.6117,0.4435 0.2409,0.1033 0.5123,0.1549 0.8162,0.1549 0.6443,0 1.2561,-0.2256 1.8315,-0.6767l0 0.7054c-0.5506,0.3918 -1.214,0.5868 -1.9939,0.5868 -0.3862,0 -0.7341,-0.0669 -1.0476,-0.2007 -0.3135,-0.1338 -0.5812,-0.3307 -0.8011,-0.585 -0.2198,-0.2561 -0.3899,-0.5715 -0.5104,-0.9443 -0.1185,-0.3727 -0.1796,-0.799 -0.1796,-1.2769 0,-0.4301 0.0669,-0.8278 0.1968,-1.1929 0.13,-0.3651 0.3116,-0.6824 0.5429,-0.95 0.2314,-0.2658 0.5067,-0.476 0.824,-0.627 0.3174,-0.1511 0.6653,-0.2256 1.0419,-0.2256 0.3689,0 0.6958,0.0631 0.9787,0.1931 0.2849,0.128 0.522,0.3116 0.715,0.5505 0.1931,0.239 0.3384,0.5314 0.4397,0.8736 0.1013,0.3441 0.151,0.7283 0.151,1.1546l0 0.3575 -4.1445 0zm3.4047 -0.627c-0.0095,-0.5964 -0.1529,-1.0591 -0.4243,-1.3878 -0.2735,-0.3288 -0.652,-0.4932 -1.1375,-0.4932 -0.2428,0 -0.4684,0.042 -0.6748,0.128 -0.2065,0.0861 -0.39,0.2103 -0.5468,0.3728 -0.1567,0.1625 -0.2867,0.3613 -0.388,0.5945 -0.1033,0.2332 -0.176,0.4951 -0.2161,0.7857l3.3875 0z"/>
    <path id="_248529336123456789101112" class="fil1" d="M131.311 15.3037l0 -3.3052c0,-1.2941 -0.4703,-1.9421 -1.4109,-1.9421 -0.2504,0 -0.4817,0.0497 -0.6958,0.1491 -0.2122,0.0975 -0.3957,0.2351 -0.5505,0.411 -0.1549,0.1758 -0.2772,0.3842 -0.3651,0.6251 -0.088,0.2389 -0.1319,0.5008 -0.1319,0.7799l0 3.2822 -0.717 0 0 -5.7348 0.717 0 0 0.9959 0.0229 0c0.4263,-0.7531 1.0667,-1.1297 1.9211,-1.1297 0.6272,0 1.1051,0.2026 1.4338,0.6098 0.3288,0.4072 0.4932,0.9959 0.4932,1.7644l0 3.4944 -0.7168 0z"/>
    <path id="_24852933612345678910111213" class="fil1" d="M136.216 15.2368c-0.2447,0.1223 -0.5143,0.1854 -0.8048,0.1854 -0.9272,0 -1.3899,-0.5352 -1.3899,-1.6019l0 -3.6244 -1.0074 0 0 -0.627 1.0074 0 0 -1.4452 0.717 -0.2351 0 1.6803 1.4777 0 0 0.627 -1.4777 0 0 3.5116c0,0.3881 0.0631,0.6691 0.1911,0.8392 0.1262,0.1721 0.3403,0.2581 0.6443,0.2581 0.2236,0 0.4377,-0.0669 0.6423,-0.2007l0 0.6327z"/>
    <path id="_2485293361234567891011121314" class="fil1" d="M137.739 12.5644c0.0038,0.3517 0.0497,0.6671 0.1395,0.9462 0.09,0.281 0.22,0.5181 0.3882,0.713 0.1663,0.1931 0.3708,0.3422 0.6117,0.4435 0.2409,0.1033 0.5123,0.1549 0.8162,0.1549 0.6443,0 1.2561,-0.2256 1.8315,-0.6767l0 0.7054c-0.5506,0.3918 -1.214,0.5868 -1.9939,0.5868 -0.3862,0 -0.7341,-0.0669 -1.0476,-0.2007 -0.3135,-0.1338 -0.5812,-0.3307 -0.8011,-0.585 -0.2198,-0.2561 -0.3899,-0.5715 -0.5104,-0.9443 -0.1185,-0.3727 -0.1796,-0.799 -0.1796,-1.2769 0,-0.4301 0.0669,-0.8278 0.1968,-1.1929 0.13,-0.3651 0.3116,-0.6824 0.5429,-0.95 0.2314,-0.2658 0.5067,-0.476 0.824,-0.627 0.3174,-0.1511 0.6653,-0.2256 1.0419,-0.2256 0.3689,0 0.6958,0.0631 0.9787,0.1931 0.2849,0.128 0.522,0.3116 0.715,0.5505 0.1931,0.239 0.3384,0.5314 0.4397,0.8736 0.1013,0.3441 0.151,0.7283 0.151,1.1546l0 0.3575 -4.1445 0zm3.4047 -0.627c-0.0095,-0.5964 -0.1529,-1.0591 -0.4243,-1.3878 -0.2735,-0.3288 -0.652,-0.4932 -1.1375,-0.4932 -0.2428,0 -0.4684,0.042 -0.6748,0.128 -0.2065,0.0861 -0.39,0.2103 -0.5468,0.3728 -0.1567,0.1625 -0.2867,0.3613 -0.388,0.5945 -0.1033,0.2332 -0.176,0.4951 -0.2161,0.7857l3.3875 0z"/>
    <path id="_248529336123456789101112131415" class="fil1" d="M146.136 10.303c-0.1682,-0.1243 -0.3843,-0.1855 -0.65,-0.1855 -0.1911,0 -0.3593,0.0363 -0.5046,0.109 -0.1453,0.0726 -0.2734,0.172 -0.3843,0.2944 -0.1089,0.1223 -0.2026,0.2657 -0.2791,0.4282 -0.0764,0.1625 -0.1376,0.3326 -0.1854,0.5065 -0.0459,0.1759 -0.0803,0.3537 -0.0994,0.5334 -0.021,0.1778 -0.0325,0.3479 -0.0325,0.5085l0 2.8062 -0.7112 0 0 -5.7348 0.7112 0 0 1.2272 0.023 0c0.0669,-0.2102 0.1529,-0.3976 0.2542,-0.5639 0.1032,-0.1663 0.2217,-0.3058 0.3575,-0.4205 0.1338,-0.1128 0.281,-0.2007 0.4396,-0.26 0.1587,-0.0593 0.325,-0.0898 0.5009,-0.0898 0.1147,0 0.2179,0.0076 0.3097,0.0229 0.0917,0.0153 0.1758,0.0382 0.2504,0.0669l0 0.7513z"/>
    <path id="_248529240" class="fil1" d="M64.0462 20.1405c-0.0822,-0.0476 -0.1729,-0.0966 -0.2752,-0.147 -0.1009,-0.0505 -0.2119,-0.0966 -0.3329,-0.1398 -0.1211,-0.0418 -0.2536,-0.0764 -0.3977,-0.1023 -0.1427,-0.0274 -0.2983,-0.0404 -0.464,-0.0404 -0.3934,0 -0.7479,0.0663 -1.0634,0.2003 -0.3156,0.1341 -0.5822,0.3171 -0.8027,0.5505 -0.219,0.2334 -0.3876,0.5101 -0.5057,0.83 -0.1182,0.3199 -0.1773,0.6643 -0.1773,1.036 0,0.307 0.0447,0.5764 0.134,0.8084 0.0908,0.232 0.2162,0.4266 0.3761,0.5822 0.16,0.157 0.3516,0.2738 0.575,0.353 0.2219,0.0793 0.4654,0.1182 0.7291,0.1182 0.1801,0 0.3444,-0.0101 0.4899,-0.0317 0.147,-0.0216 0.2839,-0.0505 0.4093,-0.0865 0.1268,-0.036 0.2449,-0.0792 0.3559,-0.1282 0.1095,-0.049 0.2161,-0.1009 0.3199,-0.1542l-0.2191 0.9957c-0.2334,0.1037 -0.4841,0.1801 -0.7493,0.2262 -0.2665,0.0461 -0.5518,0.0692 -0.8588,0.0692 -0.389,0 -0.7435,-0.062 -1.0663,-0.1873 -0.3228,-0.1254 -0.5994,-0.3041 -0.83,-0.5346 -0.2305,-0.2306 -0.4092,-0.5087 -0.5375,-0.8358 -0.1282,-0.3257 -0.1931,-0.6917 -0.1931,-1.098 0,-0.5144 0.0822,-0.9928 0.245,-1.4323 0.1643,-0.441 0.4006,-0.8214 0.7118,-1.1427 0.3113,-0.3199 0.6917,-0.5721 1.1442,-0.7551 0.451,-0.183 0.964,-0.2738 1.5389,-0.2738 0.1744,0 0.3415,0.0087 0.5015,0.0289 0.1614,0.0201 0.3127,0.0461 0.4539,0.0778 0.1426,0.0331 0.2723,0.0691 0.3905,0.108 0.1182,0.0389 0.2233,0.0807 0.3127,0.1225l-0.2147 0.9828z"/>
    <path id="_2485292401" class="fil1" d="M68.1198 23.6708c-0.0259,0.1211 -0.0504,0.245 -0.0735,0.3718 -0.0244,0.1254 -0.0446,0.2478 -0.0634,0.3646 -0.0187,0.1167 -0.0345,0.2233 -0.0489,0.3213 -0.0145,0.0965 -0.0231,0.1787 -0.0289,0.2464l-0.9798 0c0.0144,-0.1037 0.0274,-0.2075 0.0418,-0.3098 0.0144,-0.1038 0.0273,-0.196 0.0403,-0.2796 0.013,-0.0821 0.0231,-0.1513 0.0317,-0.206 0.0087,-0.0548 0.0144,-0.0865 0.0173,-0.0951l-0.0173 0c-0.0951,0.1354 -0.2032,0.2622 -0.3228,0.3833 -0.1196,0.121 -0.2464,0.2277 -0.3818,0.3199 -0.1355,0.0908 -0.2781,0.1628 -0.4294,0.2147 -0.1499,0.0519 -0.3055,0.0778 -0.4655,0.0778 -0.1801,0 -0.34,-0.0288 -0.4769,-0.0865 -0.1384,-0.0576 -0.2536,-0.1383 -0.3473,-0.2406 -0.0922,-0.1023 -0.1628,-0.2262 -0.2104,-0.3718 -0.0475,-0.1441 -0.072,-0.304 -0.072,-0.4784 0,-0.0389 0.0057,-0.0965 0.0144,-0.1715 0.0101,-0.0749 0.023,-0.1541 0.0389,-0.2377 0.0144,-0.085 0.0303,-0.1686 0.0461,-0.2493 0.0159,-0.0821 0.0288,-0.1484 0.0404,-0.1989l0.5101 -2.3934 0.9928 0 -0.5361 2.5159c-0.0115,0.0418 -0.0216,0.0908 -0.0317,0.1456 -0.01,0.0547 -0.0187,0.108 -0.0273,0.1599 -0.0087,0.0533 -0.0159,0.1009 -0.0202,0.147 -0.0029,0.0447 -0.0058,0.0778 -0.0058,0.1009 0,0.1657 0.0433,0.2982 0.1312,0.3962 0.0864,0.0995 0.2118,0.1484 0.376,0.1484 0.1571,0 0.3142,-0.0432 0.4698,-0.1311 0.1571,-0.0879 0.3026,-0.2017 0.4381,-0.3444 0.134,-0.1412 0.2507,-0.3026 0.3501,-0.4813 0.098,-0.1786 0.1672,-0.3573 0.2061,-0.5374l0.4481 -2.1197 0.9957 0 -0.6499 3.0188z"/>
    <path id="_24852924012" class="fil1" d="M72.3159 21.6477l-0.0086 0c-0.0303,-0.0158 -0.0663,-0.0331 -0.1067,-0.0504 -0.0418,-0.0159 -0.085,-0.0317 -0.1297,-0.0447 -0.0446,-0.0115 -0.0893,-0.0231 -0.1354,-0.0303 -0.0447,-0.0086 -0.0879,-0.0129 -0.1297,-0.0129 -0.1556,0 -0.3012,0.0418 -0.438,0.1239 -0.1355,0.0836 -0.2594,0.1974 -0.3704,0.3415 -0.1124,0.1455 -0.2089,0.3156 -0.2925,0.5116 -0.0821,0.1959 -0.1484,0.4063 -0.196,0.6311l-0.4005 1.8574 -0.9929 0 0.5879 -2.7566c0.0274,-0.1325 0.0562,-0.2694 0.0836,-0.4092 0.0288,-0.1412 0.0533,-0.2796 0.0764,-0.4164 0.023,-0.1369 0.0432,-0.2681 0.0634,-0.3949 0.0202,-0.1268 0.0346,-0.2421 0.0461,-0.3458l0.9669 0c-0.0087,0.0922 -0.0173,0.1873 -0.0274,0.2824 -0.0101,0.0966 -0.0202,0.1845 -0.0317,0.2666 -0.0115,0.0807 -0.0216,0.1542 -0.0288,0.2176 -0.0087,0.0634 -0.0173,0.1066 -0.0259,0.1326l0.0172 0c0.1888,-0.3185 0.3805,-0.5649 0.5764,-0.7407 0.1946,-0.1758 0.415,-0.2637 0.66,-0.2637 0.0735,0 0.1484,0.0072 0.2262,0.0202 0.0764,0.0144 0.1441,0.0259 0.2003,0.0346l-0.1902 1.0461z"/>
    <path id="_248529240123" class="fil1" d="M74.6848 19.1231c0,0.0822 -0.0158,0.1585 -0.0461,0.2291 -0.0317,0.0692 -0.0749,0.1312 -0.1297,0.1831 -0.0547,0.0518 -0.1196,0.0936 -0.1945,0.1224 -0.0735,0.0303 -0.1527,0.0447 -0.2377,0.0447 -0.0793,0 -0.1542,-0.0144 -0.2234,-0.0447 -0.0706,-0.0288 -0.1326,-0.0691 -0.1844,-0.1196 -0.0519,-0.0518 -0.0937,-0.1095 -0.124,-0.1758 -0.0317,-0.0662 -0.0461,-0.1369 -0.0461,-0.2132 0,-0.0822 0.0159,-0.1571 0.0476,-0.2277 0.0331,-0.0706 0.0763,-0.1311 0.1311,-0.1816 0.0548,-0.0504 0.1196,-0.0907 0.1917,-0.121 0.0734,-0.0288 0.1527,-0.0432 0.2363,-0.0432 0.0792,0 0.1542,0.0129 0.2248,0.0418 0.0706,0.0273 0.1311,0.0677 0.183,0.1181 0.0518,0.0504 0.0936,0.1095 0.1253,0.1744 0.0303,0.0663 0.0461,0.1383 0.0461,0.2132zm-1.3256 5.8518l-0.9929 0 0.9165 -4.3229 0.9928 0 -0.9164 4.3229z"/>
    <path id="_2485292401234" class="fil1" d="M77.5639 21.4373l-1.0476 0 -0.4222 1.954c-0.0058,0.0374 -0.013,0.0778 -0.0216,0.1225 -0.0073,0.0461 -0.0159,0.0893 -0.0231,0.134 -0.0072,0.0432 -0.0115,0.085 -0.0159,0.1253 -0.0043,0.0418 -0.0072,0.0764 -0.0072,0.1038 0,0.1354 0.0317,0.232 0.0937,0.2911 0.062,0.059 0.1628,0.0893 0.304,0.0893 0.0303,0 0.0707,-0.0043 0.1196,-0.0144 0.049,-0.0101 0.1009,-0.0216 0.1557,-0.036 0.0562,-0.0144 0.1095,-0.0303 0.1628,-0.0461 0.0533,-0.0173 0.098,-0.0346 0.1311,-0.0519l-0.1642 0.7983c-0.0505,0.0201 -0.1067,0.0389 -0.1686,0.0576 -0.062,0.0173 -0.1283,0.0346 -0.1989,0.0476 -0.0706,0.0144 -0.1426,0.0259 -0.2147,0.0345 -0.0735,0.0087 -0.1441,0.013 -0.2118,0.013 -0.1888,0 -0.3487,-0.0245 -0.4784,-0.072 -0.1311,-0.0476 -0.2378,-0.1153 -0.317,-0.2032 -0.0807,-0.0865 -0.1384,-0.1917 -0.1729,-0.3141 -0.0361,-0.1225 -0.0534,-0.2565 -0.0534,-0.4035 0,-0.0389 0.0029,-0.0836 0.0058,-0.1326 0.0043,-0.049 0.0115,-0.1008 0.0202,-0.1542 0.0086,-0.0533 0.0158,-0.1066 0.0245,-0.1599 0.0086,-0.0548 0.0173,-0.1038 0.0259,-0.1484l0.4352 -2.0347 -0.6758 0 0.1729 -0.7853 0.6672 0 0.2233 -1.0216 1.0476 -0.2911 -0.2796 1.3127 1.0563 0 -0.1729 0.7853z"/>
    <path id="_24852924012345" class="fil1" d="M79.9616 19.1231c0,0.0822 -0.0158,0.1585 -0.0461,0.2291 -0.0317,0.0692 -0.0749,0.1312 -0.1297,0.1831 -0.0547,0.0518 -0.1196,0.0936 -0.1945,0.1224 -0.0735,0.0303 -0.1527,0.0447 -0.2377,0.0447 -0.0793,0 -0.1542,-0.0144 -0.2234,-0.0447 -0.0706,-0.0288 -0.1326,-0.0691 -0.1844,-0.1196 -0.0519,-0.0518 -0.0937,-0.1095 -0.124,-0.1758 -0.0317,-0.0662 -0.0461,-0.1369 -0.0461,-0.2132 0,-0.0822 0.0159,-0.1571 0.0476,-0.2277 0.0331,-0.0706 0.0763,-0.1311 0.1311,-0.1816 0.0548,-0.0504 0.1196,-0.0907 0.1917,-0.121 0.0734,-0.0288 0.1527,-0.0432 0.2363,-0.0432 0.0792,0 0.1542,0.0129 0.2248,0.0418 0.0706,0.0273 0.1311,0.0677 0.183,0.1181 0.0518,0.0504 0.0936,0.1095 0.1253,0.1744 0.0303,0.0663 0.0461,0.1383 0.0461,0.2132zm-1.3256 5.8518l-0.9929 0 0.9165 -4.3229 0.9928 0 -0.9164 4.3229z"/>
    <path id="_248529240123456" class="fil1" d="M84.3263 22.1809c0,0.1815 -0.0187,0.3818 -0.0577,0.5965 -0.0374,0.2162 -0.0994,0.4294 -0.1858,0.6441 -0.0851,0.2133 -0.1974,0.4208 -0.3358,0.6211 -0.1369,0.1988 -0.304,0.3761 -0.5014,0.5288 -0.1975,0.1542 -0.4266,0.2767 -0.6859,0.3704 -0.2609,0.0922 -0.5577,0.1383 -0.8934,0.1383 -0.1456,0 -0.2954,-0.0087 -0.4496,-0.0274 -0.1528,-0.0173 -0.3041,-0.0461 -0.451,-0.0821 -0.1485,-0.036 -0.2897,-0.0807 -0.4222,-0.1326 -0.1341,-0.0519 -0.2565,-0.1138 -0.3661,-0.1844l1.2883 -6.078 1.0043 0 -0.4135 1.9626c-0.0288,0.1239 -0.0577,0.2565 -0.0894,0.3962 -0.0302,0.1412 -0.059,0.2608 -0.0835,0.3588l0.0172 0c0.0807,-0.1095 0.1672,-0.2104 0.2565,-0.304 0.0908,-0.0922 0.1888,-0.1715 0.294,-0.2363 0.1052,-0.0649 0.2205,-0.1153 0.3458,-0.1513 0.1254,-0.0375 0.2637,-0.0548 0.4165,-0.0548 0.1988,0 0.3804,0.0346 0.5418,0.1052 0.1614,0.0706 0.2997,0.1744 0.4135,0.3127 0.1139,0.1369 0.2018,0.3084 0.2637,0.513 0.062,0.2032 0.0937,0.438 0.0937,0.7032zm-1 0.0547c0,-0.2738 -0.0548,-0.4899 -0.1614,-0.6513 -0.1067,-0.1599 -0.281,-0.2406 -0.5231,-0.2406 -0.1527,0 -0.2968,0.0418 -0.4352,0.1253 -0.1383,0.0836 -0.2622,0.1931 -0.3732,0.3315 -0.1109,0.1383 -0.2075,0.2968 -0.2867,0.4769 -0.0807,0.1801 -0.1413,0.3675 -0.1845,0.562l-0.2781 1.3214c0.0793,0.0389 0.1816,0.0734 0.3084,0.1023 0.1268,0.0302 0.2565,0.0446 0.3919,0.0446 0.1686,0 0.3242,-0.0288 0.464,-0.0879 0.1412,-0.059 0.268,-0.1397 0.3833,-0.2406 0.1138,-0.1023 0.2147,-0.2205 0.3012,-0.3559 0.0879,-0.134 0.1599,-0.2781 0.2176,-0.4323 0.0576,-0.1528 0.1008,-0.3113 0.1311,-0.4741 0.0288,-0.1643 0.0447,-0.3242 0.0447,-0.4813z"/>
    <path id="_2485292401234567" class="fil1" d="M88.6664 23.6276c-0.0201,0.0908 -0.0389,0.1988 -0.0576,0.3242 -0.0173,0.1239 -0.0346,0.2522 -0.0504,0.3819 -0.0159,0.1297 -0.0274,0.2507 -0.0375,0.3645 -0.0101,0.1139 -0.0158,0.2061 -0.0158,0.2767l-1.013 0c0.0028,-0.0447 0.0072,-0.0994 0.0115,-0.1643 0.0043,-0.0648 0.0086,-0.1311 0.0144,-0.1988 0.0058,-0.0677 0.0115,-0.1326 0.0187,-0.1946 0.0072,-0.0619 0.0116,-0.1123 0.0144,-0.1513l-0.0158 0c-0.0735,0.0951 -0.1484,0.1917 -0.2248,0.2882 -0.0749,0.098 -0.1614,0.1859 -0.2594,0.2652 -0.0965,0.0778 -0.2104,0.1412 -0.3415,0.1887 -0.1311,0.049 -0.2882,0.0721 -0.4712,0.0721 -0.196,0 -0.3761,-0.036 -0.536,-0.1066 -0.16,-0.0721 -0.2969,-0.1787 -0.4107,-0.3171 -0.1153,-0.1397 -0.2032,-0.3126 -0.2651,-0.5173 -0.062,-0.206 -0.0923,-0.4438 -0.0923,-0.7132 0,-0.1384 0.0145,-0.3041 0.0447,-0.4986 0.0288,-0.1945 0.0821,-0.3977 0.1585,-0.6124 0.075,-0.2133 0.1801,-0.4266 0.3113,-0.6369 0.1325,-0.2119 0.3011,-0.4006 0.5072,-0.5678 0.206,-0.1671 0.451,-0.304 0.7392,-0.4078 0.2868,-0.1037 0.6239,-0.1556 1.013,-0.1556 0.2551,0 0.5188,0.0187 0.7897,0.0591 0.2694,0.0389 0.5317,0.0864 0.7853,0.1426l-0.6168 2.8791zm-0.5072 -2.2407c-0.0893,-0.0231 -0.1887,-0.0404 -0.2968,-0.0504 -0.1095,-0.0116 -0.2032,-0.0173 -0.2853,-0.0173 -0.2248,0 -0.4222,0.036 -0.5908,0.1095 -0.1686,0.0735 -0.3142,0.1686 -0.4366,0.2867 -0.1225,0.1182 -0.2248,0.2522 -0.3041,0.4021 -0.0807,0.1484 -0.1441,0.2997 -0.1902,0.4539 -0.0461,0.1527 -0.0792,0.3011 -0.0994,0.4452 -0.0202,0.1427 -0.0303,0.268 -0.0303,0.3747 0,0.121 0.0116,0.2363 0.0346,0.3444 0.0216,0.108 0.0591,0.2031 0.1095,0.2824 0.0505,0.0807 0.1167,0.1455 0.1989,0.1931 0.0807,0.0475 0.1815,0.072 0.2997,0.072 0.1268,0 0.2435,-0.0245 0.3516,-0.0706 0.1095,-0.0461 0.2075,-0.1095 0.2954,-0.1916 0.0893,-0.0822 0.1686,-0.1758 0.2392,-0.2824 0.0706,-0.1081 0.134,-0.2234 0.1902,-0.3473 0.0562,-0.1239 0.1038,-0.2508 0.1427,-0.3819 0.0403,-0.1311 0.0734,-0.2594 0.1023,-0.3862l0.2694 -1.2363z"/>
   </g>
  </g>
 </g>
</svg>
