<?xml version="1.0" encoding="utf-8"?>
<!-- Generator: Adobe Illustrator 15.0.0, SVG Export Plug-In . SVG Version: 6.00 Build 0)  -->
<!DOCTYPE svg PUBLIC "-//W3C//DTD SVG 1.1//EN" "http://www.w3.org/Graphics/SVG/1.1/DTD/svg11.dtd">
<svg version="1.1" xmlns="http://www.w3.org/2000/svg" xmlns:xlink="http://www.w3.org/1999/xlink" x="0px" y="0px"
	 width="595.28px" height="841.89px" viewBox="0 0 595.28 841.89" enable-background="new 0 0 595.28 841.89" xml:space="preserve">
<g id="boom">
	<path fill="#EA5B0C" d="M354.128,425.107c0,0,13.643,6.486,61.945,22.725l-30.546-35.021l-16.154-22.485
		c-4.33-6.03-3.911-8.84,2-13.335l61.146-33.27l-63.294-10.21c-7.076-2.256-8.117-4.65-4.938-11.363l9.609-20.292l13.639-28.796
		l-52.838,23.126c-6.804,2.975-9.302,1.909-11.861-5.061l-14.036-38.228l-22.994,31.229c-4.404,5.979-7.215,6.457-13.344,2.264
		l-49.181-33.647l11.976,50.15c1.726,7.223,0.212,8.974-7.183,8.313c0,0-67.965-14.895-69.336-15.018l49.938,49.781
		c4.747,5.712,4.286,8.209-2.189,11.847l-40.317,27.016c0,0,41.889,8.694,54.063,11.49c7.237,1.662,8.284,3.881,4.975,10.525
		l-35.487,61.341l59.175-30.054c6.798-2.985,9.352-1.942,12.112,4.953l5.365,13.399l8.862,22.136l22.304-31.72
		c4.271-6.076,6.996-6.507,12.936-2.051l37.587,28.217c-0.069-1.249-2.098-37.595-2.319-41.566
		C345.331,424.098,347.096,422.752,354.128,425.107z"/>
	<polygon fill="#FFED00" points="306.002,273.635 314.941,322.13 368.62,291.105 337.006,343.141 390.079,349.926 339.633,378.966 
		386.042,427.596 327.412,400.764 337.802,453.241 300.661,414.416 277.912,457.865 269.25,410.246 215.654,443.368 
		252.642,386.357 184.962,379.745 241.751,357.963 196.145,317.375 257.656,331.336 236.132,272.922 284.195,316.401 	"/>
	<polygon fill="#FFFFFF" points="301.346,302.688 306.682,337.14 332.844,326.285 323.885,349.633 352.64,357.548 328.548,374.198 
		342.242,395.912 314.877,389.173 323.883,424.434 298.573,400.869 283.204,425.579 275.415,396.705 251.895,406.776 
		260.686,381.495 235.109,374.563 256.285,361.26 239.582,340.496 270.375,341.588 262.028,310.244 287.854,330.556 	"/>
</g>
<g id="Text">
	<g id="a">
		<path fill="#EA5B0C" d="M200.848,559.479c-10.332,0-15.906-7.885-15.906-15.304c0-2.377,0.572-7.772,5.208-12.049l-4.14-12.208
			l4.027-2.518c3.786-2.366,8.848-3.724,13.89-3.724c11.469,0,18.316,7.173,18.316,19.187v12.115c0,2.761,0.139,5.135,0.401,6.865
			l1.044,6.898h-17.55C204.452,559.225,202.671,559.479,200.848,559.479z"/>
		<path fill="#FDEB1A" d="M218.689,552.442c-0.292-1.926-0.446-4.507-0.446-7.464v-12.115c0-9.793-5.084-15.187-14.316-15.187
			c-4.249,0-8.648,1.165-11.77,3.115l-1.342,0.84l2.689,7.931l2.172-1.47c1.912-1.293,4.671-2.065,7.4-2.065l0.113-0.001
			c2.196,0,4.685,0.503,5.152,4.131c-12.36,0.438-19.4,5.492-19.4,14.018c0,5.617,4.09,11.304,11.906,11.304
			c3.179,0,6.179-0.967,8.568-2.688l0.224,1.951h9.397L218.689,552.442z"/>
		<path fill="#FFFFFF" d="M200.848,551.479c-5.461,0-7.906-3.668-7.906-7.304c0-5.675,4.538-8.215,9.478-9.3h0.511
			c-6.509,1.51-8.098,5.313-8.098,8.631c0,4.559,3.009,7.621,7.488,7.621c0.664,0,1.294-0.052,1.892-0.148
			C203.244,551.284,202.125,551.479,200.848,551.479z"/>
		<path fill="#EA5B0C" d="M208.554,541.832c0,2.605-2.538,5.295-6.233,5.295c-1.591,0-3.488-0.628-3.488-3.621
			c0-3.344,3.269-5.122,9.721-5.293V541.832z"/>
		<path fill="#FFFFFF" d="M213.208,550.742l-0.469-4.083h-1.73c0.528-0.779,0.925-1.592,1.192-2.377
			c0.292-0.97,0.353-1.868,0.353-2.45l-0.147-7.694h0.014v-2.681c0-5.905-3.451-9.431-9.23-9.431l-0.133,0.001
			c-2.586,0-5.161,0.539-7.37,1.516l-0.036-0.104c2.365-1.116,5.347-1.762,8.275-1.762c6.942,0,10.316,3.659,10.316,11.187v12.115
			c0,2.148,0.074,4.077,0.222,5.764H213.208z"/>
	</g>
	<g id="g">
		<path fill="#EA5B0C" d="M236.991,572.73c-5.373,0-10.646-1.378-14.106-3.686l-3.776-2.519l4.421-13.665
			c-3.813-3.922-6.126-9.57-6.126-16.05c0-15.026,10.644-23.135,20.658-23.135c1.811,0,3.54,0.229,5.158,0.669h17.057l-0.575,6.527
			c-0.174,1.969-0.245,4.376-0.245,8.309v18.808c0,8.969-2.072,15.084-6.521,19.243l-0.094,0.086
			C248.945,570.809,243.316,572.73,236.991,572.73z"/>
		<path fill="#FDEB1A" d="M236.991,568.73c-4.545,0-9.1-1.154-11.886-3.013l-1.259-0.84l2.746-8.487l2.193,1.439
			c1.046,0.687,3.958,2.283,8.407,2.283c5.248,0,8.004-2.618,8.394-7.993c-2.314,1.601-5.222,2.488-8.394,2.488
			c-9,0-15.788-7.651-15.788-17.797c0-12.563,8.38-19.135,16.658-19.135c3.797,0,6.52,1.16,8.442,2.617l0.08-1.948h9.324
			l-0.192,2.176c-0.185,2.094-0.26,4.603-0.26,8.66v18.808c0,7.891-1.62,12.925-5.253,16.321
			C247.011,567.171,242.33,568.73,236.991,568.73z"/>
		<path fill="#FFFFFF" d="M228.624,563.104c2.193,1.008,5.298,1.626,8.367,1.626c2.521,0,7.239-0.438,10.513-3.37
			c2.724-2.548,3.953-6.681,3.953-13.371v-18.808c0-2.905,0.039-5.053,0.127-6.836h-1.161l-0.201,4.887h-2.279
			c0.494,0.816,0.898,1.72,1.2,2.699c0.369,1.008,0.423,2.188,0.423,3.199v5.822c0,0.942-0.099,2.362-0.571,3.778
			c-0.284,0.883-0.665,1.705-1.129,2.455h1.768v5.548c0,8.503-4.535,13.379-12.442,13.379c-2.938,0-5.86-0.61-8.34-1.713
			L228.624,563.104z"/>
		<path fill="#FFFFFF" d="M238.062,521.677c-6.291,0-12.658,5.198-12.658,15.135c0,7.994,4.958,13.797,11.788,13.797
			c1.577,0,3.035-0.273,4.318-0.793c-0.825,0.202-1.688,0.308-2.578,0.308c-6.921,0-11.571-5.484-11.571-13.646
			c0-8.389,4.786-14.248,11.638-14.248c1.895,0,3.647,0.461,5.165,1.312C242.781,522.474,240.823,521.677,238.062,521.677z"/>
		<path fill="#EA5B0C" d="M238.999,526.229c-4.64,0-7.638,4.022-7.638,10.248c0,4.45,1.983,9.646,7.571,9.646
			c2.899,0,5.357-1.819,6.262-4.636c0.242-0.728,0.372-1.621,0.372-2.534v-5.822c0-0.623-0.024-1.406-0.214-1.929
			C244.868,529.641,243.349,526.229,238.999,526.229z"/>
		<path fill="#FFFFFF" d="M238.999,530.229c-3.463,0-3.638,5.205-3.638,6.248c0,1.697,0.348,5.646,3.571,5.646
			c1.18,0,2.074-0.678,2.454-1.859c0.094-0.283,0.181-0.744,0.181-1.311v-5.822c0-0.403-0.015-0.61-0.025-0.705l-0.043-0.142
			C240.864,530.229,239.509,530.229,238.999,530.229z"/>
	</g>
	<g id="e">
		<path fill="#EA5B0C" d="M276.747,559.479c-13.117,0-21.93-9.002-21.93-22.399c0-13.561,8.913-23.402,21.194-23.402
			c13.392,0,19.387,10.645,19.387,21.194c0,2.945-0.335,5.441-1.282,8.743h-2.313l2.841,11.187
			C289.695,557.036,285.427,559.479,276.747,559.479z"/>
		<path fill="#FDEB1A" d="M276.747,555.479c-10.892,0-17.93-7.223-17.93-18.399c0-11.424,7.07-19.402,17.194-19.402
			c11.357,0,15.387,9.263,15.387,17.194c0,1.32-0.076,2.316-0.24,3.136l-0.321,1.607h-22.23c0.973,6.248,5.903,7.245,8.944,7.245
			c5.251,0,7.262-1.108,10.328-2.449l2.063,8.126C287.905,553.455,284.006,555.479,276.747,555.479z"/>
		<path fill="#FFFFFF" d="M276.011,521.677c-7.892,0-13.194,6.189-13.194,15.402c0,8.882,5.338,14.399,13.93,14.399
			c3.7,0,6.503-0.61,8.472-1.287l-0.089-0.351c-1.813,0.562-4.222,1.019-7.58,1.019c-7.95,0-12.973-5.063-13.11-13.211l-0.035-2.034
			h22.982c0.007-0.23,0.01-0.479,0.01-0.743C287.397,532.668,286.849,521.677,276.011,521.677z"/>
		<path fill="#FDEB1A" d="M285.672,535.398h-21.408c0.853-7.427,3.805-13.505,11.278-13.505c6.586,0,10.284,5.073,10.166,11.541
			L285.672,535.398z"/>
		<path fill="#EA5B0C" d="M268.988,531.398h12.571c-0.209-1.263-0.699-2.815-1.822-3.958c-1.022-1.041-2.394-1.547-4.195-1.547
			C271.474,525.894,269.722,529.096,268.988,531.398z"/>
	</g>
	<g id="T">
		<polygon fill="#EA5B0C" points="283.529,501.628 283.529,518.582 297.251,518.582 297.251,558.742 315.141,558.742 
			315.141,518.582 328.93,518.582 328.93,501.628 		"/>
		<polygon fill="#FDEB1A" points="311.141,554.742 301.251,554.742 301.251,514.582 287.529,514.582 287.529,505.628 
			324.93,505.628 324.93,514.582 311.141,514.582 		"/>
		<polygon fill="#FDFDFD" points="305.251,550.742 307.141,550.742 307.141,510.582 320.93,510.582 320.93,509.628 291.529,509.628 
			291.529,510.582 305.251,510.582 		"/>
	</g>
	<g id="o">
		<path fill="#EA5B0C" d="M336.181,559.479c-12.475,0-21.528-9.533-21.528-22.667c0-13.405,9.279-23.135,22.064-23.135
			c12.513,0,21.595,9.504,21.595,22.599C358.312,551.509,347.179,559.479,336.181,559.479z"/>
		<path fill="#FFFFFF" d="M352.312,536.275c0,11.981-8.366,17.203-16.131,17.203c-8.701,0-15.528-6.426-15.528-16.667
			c0-10.776,7.162-17.135,16.064-17.135C346.02,519.677,352.312,526.437,352.312,536.275z"/>
		<path fill="#FDEB1A" d="M336.181,555.479c-10.156,0-17.528-7.851-17.528-18.667c0-11.267,7.429-19.135,18.064-19.135
			c10.359,0,17.595,7.648,17.595,18.599C354.312,549.469,344.913,555.479,336.181,555.479z"/>
		<path fill="#FDFDFD" d="M336.717,521.677c-8.412,0-14.064,6.082-14.064,15.135c0,8.636,5.563,14.667,13.528,14.667
			c7.033,0,14.131-4.701,14.131-15.203C350.312,527.544,344.849,521.677,336.717,521.677z"/>
		<path fill="#FDEB1A" d="M336.449,551.061c-6.822,0-11.773-6.077-11.773-14.45c0-6.991,3.726-14.516,11.906-14.516
			c8.042,0,11.705,7.455,11.705,14.382C348.287,544.791,343.198,551.061,336.449,551.061z"/>
		<path fill="#EA5B0C" d="M336.582,526.095c-6.241,0-7.906,6.61-7.906,10.516c0,6.056,3.27,10.45,7.773,10.45
			c4.542,0,7.838-4.451,7.838-10.584C344.287,532.886,342.677,526.095,336.582,526.095z"/>
		<path fill="#FFFFFF" d="M336.582,530.095c-3.797,0-3.906,5.849-3.906,6.516c0,3.205,1.296,6.45,3.773,6.45
			c2.188,0,3.838-2.83,3.838-6.584C340.287,536.413,340.245,530.095,336.582,530.095z"/>
	</g>
	<g id="o2">
		<path fill="#EA5B0C" d="M373.005,559.479c-12.475,0-21.528-9.533-21.528-22.667c0-13.405,9.279-23.135,22.064-23.135
			c12.513,0,21.595,9.504,21.595,22.599C395.136,551.509,384.003,559.479,373.005,559.479z"/>
		<path fill="#FFFFFF" d="M389.136,536.275c0,11.981-8.366,17.203-16.131,17.203c-8.701,0-15.528-6.426-15.528-16.667
			c0-10.776,7.162-17.135,16.064-17.135C382.844,519.677,389.136,526.437,389.136,536.275z"/>
		<path fill="#FDEB1A" d="M373.005,555.479c-10.156,0-17.528-7.851-17.528-18.667c0-11.267,7.429-19.135,18.064-19.135
			c10.359,0,17.595,7.648,17.595,18.599C391.136,549.469,381.737,555.479,373.005,555.479z"/>
		<path fill="#FDFDFD" d="M373.541,521.677c-8.412,0-14.064,6.082-14.064,15.135c0,8.636,5.563,14.667,13.528,14.667
			c7.033,0,14.131-4.701,14.131-15.203C387.136,527.544,381.673,521.677,373.541,521.677z"/>
		<path fill="#FDEB1A" d="M373.273,551.061c-6.822,0-11.773-6.077-11.773-14.45c0-6.991,3.726-14.516,11.906-14.516
			c8.042,0,11.705,7.455,11.705,14.382C385.111,544.791,380.022,551.061,373.273,551.061z"/>
		<path fill="#EA5B0C" d="M373.406,526.095c-6.241,0-7.906,6.61-7.906,10.516c0,6.056,3.27,10.45,7.773,10.45
			c4.542,0,7.838-4.451,7.838-10.584C381.111,532.886,379.501,526.095,373.406,526.095z"/>
		<path fill="#FFFFFF" d="M373.406,530.095c-3.797,0-3.906,5.849-3.906,6.516c0,3.205,1.296,6.45,3.773,6.45
			c2.188,0,3.838-2.83,3.838-6.584C377.111,536.413,377.069,530.095,373.406,530.095z"/>
	</g>
	<g id="l">
		<rect x="390.484" y="499.22" fill="#EA5B0C" width="17.89" height="59.522"/>
		<rect x="394.484" y="503.22" fill="#FDEB1A" width="9.89" height="51.522"/>
		<rect x="398.484" y="507.22" fill="#FFFFFF" width="1.89" height="43.522"/>
	</g>
	<g id="s">
		<path fill="#EA5B0C" d="M419.173,559.479c-4.365,0-8.792-1.132-12.146-3.105l-4.126-2.428l5.141-16.16
			c-2.557-3.13-3.102-6.397-3.102-8.604c0-8.839,7.385-15.505,17.178-15.505c4.203,0,8.279,1.088,11.182,2.985l3.854,2.52
			l-4.522,13.774c3.052,2.847,4.591,6.44,4.591,10.75C437.222,552.992,429.8,559.479,419.173,559.479z"/>
		<path fill="#FDEB1A" d="M419.173,555.479c-3.673,0-7.359-0.931-10.117-2.553l-1.375-0.81l2.651-8.335l2.163,1.282
			c1.555,0.921,4.271,1.997,6.812,1.997c1.928,0,4.225-0.489,4.225-2.818c0-1.33-0.334-2.396-4.658-4.02
			c-8.206-2.982-9.933-7.651-9.933-11.041c0-6.666,5.542-11.505,13.178-11.505c3.396,0,6.758,0.872,8.993,2.334l1.284,0.84
			l-2.685,8.176l-2.167-1.367c-0.967-0.609-2.975-1.632-5.56-1.632c-2.102,0-3.355,0.903-3.355,2.417c0,1.21,0.477,1.97,4.83,3.697
			c4.169,1.558,9.763,4.468,9.763,11.564C433.222,550.747,427.576,555.479,419.173,555.479z"/>
		<path fill="#FFFFFF" d="M412.494,550.182c1.951,0.823,4.343,1.297,6.679,1.297c6.198,0,10.049-2.979,10.049-7.772
			c0-3.652-2.086-5.921-7.201-7.831c-4.062-1.612-7.392-3.272-7.392-7.431c0-3.091,2.302-6.417,7.355-6.417
			c2.159,0,4.022,0.51,5.454,1.099l0.148-0.452c-1.348-0.552-3.234-0.997-5.469-0.997c-5.403,0-9.178,3.086-9.178,7.505
			c0,3.071,2.462,5.523,7.318,7.289c3.528,1.324,7.272,3.118,7.272,7.771c0,3.146-2.154,6.818-8.225,6.818
			c-2.334,0-4.704-0.643-6.631-1.45L412.494,550.182z"/>
	</g>
	<g id="R">
		<path fill="#EA5B0C" d="M191.545,549.904c-0.603-1.363-2.141-7.563-2.918-10.882c-0.671-2.937-1.652-5.268-2.797-7.117
			c3.078-3.228,4.822-7.514,4.822-12.296c0-5.125-2.009-9.89-5.528-13.088c-3.952-3.566-9.376-5.228-17.072-5.228
			c-7.598,0-12.496,1.078-17.178,1.929v55.52h17.823v-19.513c1.512,0.113,1.988,0.567,2.725,3.993
			c1.834,8.562,2.957,10.945,3.553,12.409c0.523,1.284,1.709,3.11,1.709,3.11l19.622,0.007
			C196.308,558.749,192.583,552.25,191.545,549.904z"/>
		<path fill="#FDEB1A" d="M188.02,551.794c-0.835-1.552-1.986-6.303-3.292-11.88c-0.875-3.83-2.382-6.699-4.498-8.574
			c4.034-2.567,6.423-6.815,6.423-11.73c0-4-1.532-7.687-4.208-10.118c-3.172-2.863-7.746-4.197-14.392-4.197
			c-3.828,0-8.248,0.371-11.536,0.969l-1.643,0.299V530v24.742h9.823v-19.546h3.413c3.878,0.147,5.949,1.261,7.224,7.188
			c1.741,8.125,2.597,10.318,3.147,11.32l0.57,1.037h10.555L188.02,551.794z"/>
		<path fill="#FFFFFF" d="M181.56,550.742c-0.452-1.301-1.185-3.922-2.315-9.197c-1.529-7.11-4.711-10.107-11.058-10.348h-7.489
			v19.545h-1.823V530v-20.066c2.814-0.4,6.183-0.64,9.178-0.64c5.597,0,9.318,1.006,11.707,3.162
			c1.838,1.671,2.893,4.278,2.893,7.153c0,4.438-2.62,7.995-7.012,9.53c3.251-1.794,5.188-4.95,5.188-8.928
			c0-6.491-4.626-10.366-12.375-10.366c-2.746,0-4.974,0.19-6.271,0.536l-1.485,0.396V521v9.779h7.958
			c2.066,0,3.939-0.342,5.563-0.976v2.867l1.334,0.471c2.579,0.911,4.305,3.417,5.278,7.674c1.082,4.62,1.854,7.767,2.523,9.927
			H181.56z"/>
		<path fill="#EA5B0C" d="M164.698,521v-6.992c0.832-0.087,2.045-0.162,3.756-0.162c5.557,0,8.375,2.142,8.375,6.366
			c0,4.051-3.132,6.567-8.174,6.567h-3.958V521z"/>
		<path fill="#FFFFFF" d="M168.698,522.779v-4.933c4.131,0.049,4.131,1.331,4.131,2.365
			C172.83,521.907,171.439,522.771,168.698,522.779z"/>
	</g>
</g>
<g id="tool">
	<path fill="#EA5B0C" d="M365.926,314.182l-3.967-6.534l-17.057,17.056l-9.231-1.375l-1.375-9.231l17.057-17.056l-6.533-3.967
		c-4.074-2.473-8.573-3.727-13.372-3.727c-8.525,0-17.544,4.13-24.744,11.331c-10.019,10.019-11.146,21.662-9.737,29.58
		c-8.426,4.595-16.385,10.684-24.205,18.503c-7.812,7.812-13.896,15.764-18.491,24.183c-1.838-0.336-3.759-0.512-5.678-0.512
		c-6.225,0-15.426,1.782-23.914,10.27c-11.621,11.621-14.606,26.583-7.604,38.115l3.967,6.534l17.056-17.056l9.232,1.375
		l1.375,9.232l-17.056,17.057l6.534,3.967c4.073,2.473,8.571,3.726,13.371,3.727c0.001,0,0.001,0,0.002,0
		c8.523,0,17.542-4.13,24.743-11.331c10.019-10.019,11.146-21.662,9.736-29.58c8.427-4.596,16.386-10.685,24.206-18.503
		c7.813-7.814,13.897-15.766,18.49-24.183c1.839,0.335,3.76,0.511,5.679,0.511c6.225,0,15.426-1.782,23.913-10.269
		C369.942,340.676,372.928,325.715,365.926,314.182z"/>
	<path fill="#FFFFFF" d="M362.507,316.257l-1.322-2.178l-14.879,14.878l-14.155-2.108l-2.107-14.155l14.878-14.877l-2.178-1.322
		c-3.438-2.088-7.239-3.146-11.296-3.146c-7.472,0-15.46,3.703-21.916,10.159c-10.201,10.201-10.006,22.188-7.965,28.86
		c-9.087,4.546-17.602,10.849-25.976,19.224c-8.373,8.372-14.675,16.885-19.221,25.973c-2.37-0.734-5.066-1.13-7.777-1.13
		c-5.469,0-13.566,1.579-21.085,9.098c-10.272,10.272-13.025,23.308-7.013,33.211l1.322,2.178l14.877-14.877l14.156,2.108
		l2.108,14.155l-14.878,14.879l2.178,1.322c3.438,2.087,7.238,3.145,11.295,3.146c0.001,0,0.001,0,0.002,0
		c7.471,0,15.458-3.703,21.914-10.159c10.202-10.202,10.006-22.188,7.964-28.86c9.089-4.546,17.604-10.85,25.977-19.223
		c8.375-8.375,14.677-16.888,19.221-25.973c2.37,0.733,5.066,1.129,7.777,1.129c5.469,0,13.565-1.578,21.085-9.098
		C365.766,339.197,368.519,326.161,362.507,316.257z"/>
	<path fill="#00A19A" d="M278.949,401.618c10.076-4.773,18.915-11.491,27.047-19.623c8.131-8.132,14.85-16.971,19.622-27.047
		c5.741,2.387,18.031,3.536,28.461-6.894c8.662-8.662,12.728-20.86,6.718-30.759l-13.789,13.789l-16.617-2.475l-2.475-16.617
		l13.789-13.789c-9.9-6.011-22.098-1.945-30.76,6.717c-10.43,10.43-9.281,22.72-6.895,28.461
		c-10.076,4.773-18.915,11.491-27.046,19.623c-8.132,8.131-14.849,16.97-19.622,27.047c-5.741-2.388-18.031-3.536-28.461,6.894
		c-8.662,8.662-12.728,20.859-6.718,30.759l13.789-13.788l16.617,2.475l2.475,16.617l-13.789,13.789
		c9.9,6.01,22.097,1.944,30.759-6.718C282.484,419.649,281.336,407.358,278.949,401.618z"/>
</g>
</svg>
